<?xml version="1.0" encoding="utf-8"?>
<!-- Generator: Adobe Illustrator 21.0.0, SVG Export Plug-In . SVG Version: 6.00 Build 0)  -->
<svg version="1.1" id="Layer_1" xmlns="http://www.w3.org/2000/svg" xmlns:xlink="http://www.w3.org/1999/xlink" x="0px" y="0px"
	 width="1400px" height="980px" viewBox="0 0 1400 980" style="enable-background:new 0 0 1400 980;" xml:space="preserve">
<style type="text/css">
	.st0{fill:#4C4748;}
</style>
<g>
	<g>
		<path class="st0" d="M141.3,236.4c-1,0.2-1.7,1-1.7,2.1v9.8l-55.5,33.6c-1.8,1.1-2.7,3.3-2.1,5.3c0.6,2.1,2.4,3.5,4.6,3.5h110.9
			c2.2,0,4-1.4,4.6-3.5c0.6-2.1-0.3-4.2-2.1-5.3l-56.1-34v-8c7.1-3.1,13.9-8,13.9-19.6c0-8.3-6.2-17-16.7-17
			c-5.7,0-11.2,3.9-13.6,9.7c-2.3,5.5-1.1,11.2,3,15.4c0.8,0.8,2.1,0.8,3,0c0.8-0.8,0.8-2.1,0-3c-3-3-3.7-6.9-2.1-10.9
			c1.7-4.2,5.7-7.1,9.7-7.1c8.1,0,12.5,6.6,12.5,12.8C153.5,228.2,150.1,232.7,141.3,236.4z M197.7,285.4c0.2,0.1,0.3,0.4,0.3,0.6
			c-0.1,0.3-0.3,0.4-0.5,0.4H86.5c-0.3,0-0.5-0.1-0.5-0.4c-0.1-0.3,0-0.5,0.3-0.6l55.5-33.6c0.1,0,0.3,0,0.4-0.1L197.7,285.4z"/>
		<g>
			<path class="st0" d="M450.6,224.9c1.2,0,2.1-0.9,2.1-2.1v-21.3c0-1.2-0.9-2.1-2.1-2.1h-61.5c-1.2,0-2.1,0.9-2.1,2.1v21.3
				c0,1.2,0.9,2.1,2.1,2.1H450.6z M391.2,203.6h57.3v17.1h-57.3V203.6z"/>
			<path class="st0" d="M450.6,252.7c1.2,0,2.1-0.9,2.1-2.1v-21.3c0-1.2-0.9-2.1-2.1-2.1h-61.5c-1.2,0-2.1,0.9-2.1,2.1v21.3
				c0,1.2,0.9,2.1,2.1,2.1H450.6z M391.2,231.4h57.3v17.1h-57.3V231.4z"/>
			<path class="st0" d="M450.6,280.4c1.2,0,2.1-0.9,2.1-2.1V257c0-1.2-0.9-2.1-2.1-2.1h-61.5c-1.2,0-2.1,0.9-2.1,2.1v21.3
				c0,1.2,0.9,2.1,2.1,2.1H450.6z M391.2,259.1h57.3v17.1h-57.3V259.1z"/>
			<circle class="st0" cx="419.9" cy="212.2" r="4.4"/>
			<circle class="st0" cx="419.9" cy="239.9" r="4.4"/>
			<circle class="st0" cx="419.9" cy="267.7" r="4.4"/>
			<path class="st0" d="M447.6,302.1h10.1c1.2,0,2.1-0.9,2.1-2.1v-14.2v-91.8c0-1.2-0.9-2.1-2.1-2.1H382c-1.2,0-2.1,0.9-2.1,2.1
				v91.8V300c0,1.2,0.9,2.1,2.1,2.1h10.1c1.2,0,2.1-0.9,2.1-2.1v-12.1h51.3V300C445.5,301.2,446.4,302.1,447.6,302.1z M455.6,297.9
				h-5.9v-10h5.9V297.9z M390,297.9h-5.9v-10h5.9V297.9z M392.1,283.7h-8v-87.6h71.5v87.6h-8H392.1z"/>
		</g>
		<g>
			<path class="st0" d="M725.1,320.1c1.2,0,2.1-0.9,2.1-2.1V193.3c0,0,0,0,0-0.1c0-0.1,0-0.2,0-0.3c0,0,0-0.1,0-0.1
				c0-0.1-0.1-0.2-0.1-0.4c0,0,0,0,0-0.1c0-0.1-0.1-0.2-0.1-0.3c0,0-0.1-0.1-0.1-0.1c0-0.1-0.1-0.1-0.2-0.2c0,0-0.1-0.1-0.1-0.1
				c-0.1-0.1-0.1-0.1-0.2-0.1c0,0-0.1-0.1-0.1-0.1c0,0,0,0-0.1,0l-24.9-14.2c-0.2-1.8-1.7-3.2-3.6-3.2c-1.9,0-3.4,1.4-3.6,3.2
				l-24.9,14.2c0,0,0,0-0.1,0c0,0-0.1,0.1-0.1,0.1c-0.1,0-0.1,0.1-0.2,0.1c0,0-0.1,0.1-0.1,0.1c-0.1,0.1-0.1,0.1-0.2,0.2
				c0,0-0.1,0.1-0.1,0.1c-0.1,0.1-0.1,0.2-0.1,0.3c0,0,0,0,0,0.1c0,0.1-0.1,0.2-0.1,0.4c0,0,0,0.1,0,0.1c0,0.1,0,0.2,0,0.3
				c0,0,0,0,0,0.1V318c0,1.2,0.9,2.1,2.1,2.1H725.1z M696.3,180.9c0.5,0.2,1,0.3,1.5,0.3s1-0.1,1.5-0.3l18,10.3h-39.1L696.3,180.9z
				 M672.4,195.4H723v120.5h-50.6V195.4z"/>
			<path class="st0" d="M718,313.2c1.2,0,2.1-0.9,2.1-2.1V200.2c0-1.2-0.9-2.1-2.1-2.1h-40.6c-1.2,0-2.1,0.9-2.1,2.1v110.9
				c0,1.2,0.9,2.1,2.1,2.1H718z M679.5,202.3h36.4V309h-36.4V202.3z"/>
			<path class="st0" d="M708.6,286.7c0.4,0,0.9-0.1,1.3-0.4c0.9-0.7,1.1-2,0.4-2.9l-21.7-29c-0.7-0.9-2-1.1-2.9-0.4
				c-0.9,0.7-1.1,2-0.4,2.9l21.7,29C707.4,286.4,708,286.7,708.6,286.7z"/>
			<path class="st0" d="M704.3,294.5c0.4,0,0.9-0.1,1.3-0.4c0.9-0.7,1.1-2,0.4-2.9l-15.5-20.6c-0.7-0.9-2-1.1-2.9-0.4
				c-0.9,0.7-1.1,2-0.4,2.9l15.5,20.6C703,294.2,703.7,294.5,704.3,294.5z"/>
		</g>
		<g>
			<path class="st0" d="M1016.5,257.4c0-33.4-18.3-60.5-40.8-60.5s-40.8,27.2-40.8,60.5s18.3,60.5,40.8,60.5
				S1016.5,290.8,1016.5,257.4z M939,257.4c0-31.1,16.4-56.4,36.7-56.4s36.7,25.3,36.7,56.4s-16.4,56.4-36.7,56.4
				S939,288.5,939,257.4z"/>
			<path class="st0" d="M946.4,204.8c-11.1,12.3-18.3,31.3-18.3,52.7c0,36.9,21.3,66.9,47.5,66.9c26.2,0,47.5-30,47.5-66.9
				c0-21.4-7.2-40.4-18.3-52.7c-0.1-0.1-0.2-0.3-0.3-0.4l-25.5-30.2c0.1-0.3,0.1-0.6,0.1-0.9c0-2-1.6-3.6-3.6-3.6
				c-2,0-3.6,1.6-3.6,3.6c0,0.3,0,0.6,0.1,0.9l-25.5,30.2C946.5,204.5,946.5,204.6,946.4,204.8z M975.4,176.9c0.1,0,0.2,0,0.3,0
				c0.1,0,0.2,0,0.3,0l14.2,16.8c-4.6-2.1-9.4-3.2-14.5-3.2c-5.1,0-9.9,1.1-14.5,3.2L975.4,176.9z M949.8,207.1L949.8,207.1
				c7.3-7.8,16.2-12.4,25.8-12.4c9.6,0,18.5,4.6,25.7,12.3l0.1,0.1c0,0,0.1,0.1,0.1,0.1c10.6,11.4,17.4,29.7,17.4,50.2
				c0,34.6-19.4,62.7-43.3,62.7s-43.3-28.1-43.3-62.7c0-20.5,6.8-38.8,17.4-50.2C949.7,207.2,949.8,207.1,949.8,207.1z"/>
			<path class="st0" d="M991.3,286.9c0.4,0,0.9-0.1,1.3-0.4c0.9-0.7,1.1-2,0.4-2.9l-31.3-41.7c-0.7-0.9-2-1.1-2.9-0.4
				c-0.9,0.7-1.1,2-0.4,2.9l31.3,41.7C990,286.7,990.6,286.9,991.3,286.9z"/>
			<path class="st0" d="M985.1,298.2c0.4,0,0.9-0.1,1.3-0.4c0.9-0.7,1.1-2,0.4-2.9l-22.3-29.7c-0.7-0.9-2-1.1-2.9-0.4
				c-0.9,0.7-1.1,2-0.4,2.9l22.3,29.7C983.8,297.9,984.4,298.2,985.1,298.2z"/>
		</g>
		<g>
			<path class="st0" d="M1317.3,289.4h7.7c1.2,0,2.1-0.9,2.1-2.1v-10.8v-69.7c0-1.2-0.9-2.1-2.1-2.1h-142.8c-1.2,0-2.1,0.9-2.1,2.1
				v69.7v10.8c0,1.2,0.9,2.1,2.1,2.1h7.7c1.2,0,2.1-0.9,2.1-2.1v-8.7h123.3v8.7C1315.2,288.5,1316.1,289.4,1317.3,289.4z
				 M1322.8,285.2h-3.5v-6.6h3.5V285.2z M1187.7,285.2h-3.5v-6.6h3.5V285.2z M1189.8,274.4h-5.6v-65.6h138.6v65.6h-5.6H1189.8z"/>
			<path class="st0" d="M1319.2,230.7c1.2,0,2.1-0.9,2.1-2.1v-16.2c0-1.2-0.9-2.1-2.1-2.1h-131.4c-1.2,0-2.1,0.9-2.1,2.1v16.2
				c0,1.2,0.9,2.1,2.1,2.1H1319.2z M1189.9,214.5h127.2v12h-127.2V214.5z"/>
			<path class="st0" d="M1319.2,251.8c1.2,0,2.1-0.9,2.1-2.1v-16.2c0-1.2-0.9-2.1-2.1-2.1h-131.4c-1.2,0-2.1,0.9-2.1,2.1v16.2
				c0,1.2,0.9,2.1,2.1,2.1H1319.2z M1189.9,235.6h127.2v12h-127.2V235.6z"/>
			<path class="st0" d="M1319.2,272.9c1.2,0,2.1-0.9,2.1-2.1v-16.2c0-1.2-0.9-2.1-2.1-2.1h-131.4c-1.2,0-2.1,0.9-2.1,2.1v16.2
				c0,1.2,0.9,2.1,2.1,2.1H1319.2z M1189.9,256.7h127.2v12h-127.2V256.7z"/>
			<circle class="st0" cx="1253.5" cy="220.5" r="3.3"/>
			<circle class="st0" cx="1253.5" cy="241.6" r="3.3"/>
			<circle class="st0" cx="1253.5" cy="262.7" r="3.3"/>
		</g>
		<g>
			<path class="st0" d="M73,489.6c0,10.4,7.7,18.9,17.2,18.9c9.3,0,16.2-5.7,17.1-13.8c8.7,13.1,21,21.3,34.7,21.3s26-8.2,34.7-21.3
				c0.8,8.1,7.8,13.8,17.1,13.8c9.5,0,17.2-8.5,17.2-18.9c0-11.7-5.7-19.1-10.7-25.7c-4.5-5.8-8.3-10.9-8.3-18.2
				c0-4.7,2.8-7.6,7.6-7.6c1.6,0,2.8,0.7,3.8,1.6c-0.2,0-0.3,0-0.5,0c-3.9,0-7.1,3.2-7.1,7.1s3.2,7.1,7.1,7.1c3.9,0,7.1-3.2,7.1-7.1
				c0-0.3,0-0.6-0.1-0.9c-0.3-6.1-3.8-12.1-10.3-12.1c-4.9,0-8.6,2.3-10.5,6c-3.2-32.6-23.1-57.7-47.1-57.7s-43.9,25.2-47.1,57.7
				c-1.9-3.7-5.6-6-10.5-6c-6.5,0-10.1,5.9-10.3,12.1c0,0.3-0.1,0.6-0.1,0.9c0,3.9,3.2,7.1,7.1,7.1c3.9,0,7.1-3.2,7.1-7.1
				s-3.2-7.1-7.1-7.1c-0.2,0-0.4,0-0.5,0c0.9-1,2.2-1.6,3.8-1.6c4.7,0,7.6,2.8,7.6,7.6c0,7.3-3.9,12.4-8.3,18.2
				C78.7,470.4,73,477.8,73,489.6z M189.3,454.2c1.7,4.6,4.7,8.5,7.6,12.3c4.8,6.3,9.8,12.8,9.8,23.2c0,8.1-5.8,14.7-13,14.7
				c-7.8,0-13-4.5-13-11.3c0-2.2,0.6-4.1,1.7-5.7c0.5,3.4,3.5,6.1,7.1,6.1c3.9,0,7.1-3.2,7.1-7.1c0-3.9-3.2-7.1-7.1-7.1
				c-0.9,0-1.8,0.2-2.6,0.5c-1.1,0.3-2.1,0.6-3.1,1.1C186.9,472.7,188.8,463.7,189.3,454.2z M142,386.3c23.9,0,43.3,28.1,43.3,62.7
				c0,34.6-19.4,62.7-43.3,62.7s-43.3-28.1-43.3-62.7C98.6,414.5,118.1,386.3,142,386.3z M94.6,454.2c0.5,9.6,2.5,18.6,5.5,26.6
				c-1-0.5-2-0.9-3.1-1.1c-0.8-0.3-1.7-0.5-2.6-0.5c-3.9,0-7.1,3.2-7.1,7.1c0,3.9,3.2,7.1,7.1,7.1c3.6,0,6.5-2.6,7.1-6.1
				c1.1,1.6,1.7,3.5,1.7,5.7c0,6.7-5.2,11.3-13,11.3c-7.2,0-13-6.6-13-14.7c0-10.3,5-16.8,9.8-23.2
				C89.9,462.6,92.8,458.8,94.6,454.2z"/>
			<path class="st0" d="M182.8,449.1c0-33.4-18.3-60.5-40.8-60.5s-40.8,27.2-40.8,60.5s18.3,60.5,40.8,60.5S182.8,482.4,182.8,449.1
				z M105.3,449.1c0-31.1,16.4-56.4,36.7-56.4c20.2,0,36.7,25.3,36.7,56.4c0,31.1-16.4,56.4-36.7,56.4
				C121.7,505.4,105.3,480.1,105.3,449.1z"/>
			<path class="st0" d="M157.6,478.6c0.4,0,0.9-0.1,1.3-0.4c0.9-0.7,1.1-2,0.4-2.9L128,433.5c-0.7-0.9-2-1.1-2.9-0.4
				c-0.9,0.7-1.1,2-0.4,2.9l31.3,41.7C156.4,478.3,157,478.6,157.6,478.6z"/>
			<path class="st0" d="M151.4,489.8c0.4,0,0.9-0.1,1.3-0.4c0.9-0.7,1.1-2,0.4-2.9l-22.3-29.7c-0.7-0.9-2-1.1-2.9-0.4
				c-0.9,0.7-1.1,2-0.4,2.9l22.3,29.7C150.1,489.5,150.8,489.8,151.4,489.8z"/>
		</g>
		<g>
			<path class="st0" d="M453.8,394.5c-1.8-9.9-10.5-17.5-20.9-17.5s-19.1,7.6-20.9,17.5c-10.9,0.9-19.5,10-19.5,21.1v27.1h-18.7
				c-1.2,0-2.1,0.9-2.1,2.1V472c0,1.2,0.9,2.1,2.1,2.1h7V519c0,1.2,0.9,2.1,2.1,2.1h9.1c1.2,0,2.1-0.9,2.1-2.1v-44.9h77.5V519
				c0,1.2,0.9,2.1,2.1,2.1h9.1c1.2,0,2.1-0.9,2.1-2.1v-44.9h7c1.2,0,2.1-0.9,2.1-2.1v-27.1c0-1.2-0.9-2.1-2.1-2.1h-18.7v-27.1
				C473.3,404.5,464.7,395.4,453.8,394.5z M454.2,398.7c8.4,1,15,8.2,15,16.9v27.1h-15V398.7z M415.9,398.2c0-9.4,7.6-17,17-17
				s17,7.6,17,17v44.5h-34.1V398.2z M396.8,415.6c0-8.7,6.5-15.9,15-16.9v44.1h-15V415.6z M390,516.9h-4.9v-42.8h4.9V516.9z
				 M480.8,516.9h-4.9v-42.8h4.9V516.9z M490,447v22.9h-7h-9.1h-81.7H383h-7V447h18.7h19.1h38.3h19.1H490z"/>
			<circle class="st0" cx="433" cy="458.4" r="2.3"/>
			<path class="st0" d="M441.4,422.3c0.4,0,0.9-0.1,1.3-0.4c0.9-0.7,1.1-2,0.4-2.9l-16.8-22.5c-0.7-0.9-2-1.1-2.9-0.4
				c-0.9,0.7-1.1,2-0.4,2.9l16.8,22.5C440.1,422,440.7,422.3,441.4,422.3z"/>
			<path class="st0" d="M438,428.3c0.4,0,0.9-0.1,1.3-0.4c0.9-0.7,1.1-2,0.4-2.9l-12-16c-0.7-0.9-2-1.1-2.9-0.4
				c-0.9,0.7-1.1,2-0.4,2.9l12,16C436.8,428,437.4,428.3,438,428.3z"/>
		</g>
		<path class="st0" d="M719.9,429.1c0.6,0,1.2-0.3,1.6-0.7c0.4-0.5,0.6-1.1,0.5-1.7l-7.7-42.7c-0.2-1-1-1.7-2.1-1.7h-28.9
			c-1,0-1.9,0.7-2.1,1.7l-7.7,42.7c-0.1,0.6,0.1,1.2,0.5,1.7c0.4,0.5,1,0.7,1.6,0.7h20v82.6h-18.2c-1.2,0-2.1,0.9-2.1,2.1
			c0,1.2,0.9,2.1,2.1,2.1H718c1.2,0,2.1-0.9,2.1-2.1c0-1.2-0.9-2.1-2.1-2.1h-18.2v-82.6H719.9z M678.1,424.9l6.9-38.5h25.4l6.9,38.5
			H678.1z"/>
		<g>
			<path class="st0" d="M951.4,463c0.6,0,1.2-0.3,1.6-0.7c0.4-0.5,0.6-1.1,0.5-1.7l-4.5-25.1c-0.2-1-1-1.7-2.1-1.7h-17
				c-1,0-1.9,0.7-2.1,1.7l-4.5,25.1c-0.1,0.6,0.1,1.2,0.5,1.7c0.4,0.5,1,0.7,1.6,0.7h10.9v11.4c0,11.4,9.3,20.7,20.7,20.7
				c8.2,0,15.2-4.8,18.6-11.6c3.4,6.9,10.4,11.6,18.6,11.6c11.4,0,20.7-9.3,20.7-20.7V463h10.9c0.6,0,1.2-0.3,1.6-0.7
				c0.4-0.5,0.6-1.1,0.5-1.7l-4.5-25.1c-0.2-1-1-1.7-2.1-1.7h-17c-1,0-1.9,0.7-2.1,1.7l-4.5,25.1c-0.1,0.6,0.1,1.2,0.5,1.7
				c0.4,0.5,1,0.7,1.6,0.7h10.9v11.4c0,9.1-7.4,16.5-16.5,16.5s-16.5-7.4-16.5-16.5v-67.1h20.5c1.2,0,2.1-0.9,2.1-2.1
				s-0.9-2.1-2.1-2.1h-45.1c-1.2,0-2.1,0.9-2.1,2.1s0.9,2.1,2.1,2.1h20.5v67.1c0,9.1-7.4,16.5-16.5,16.5c-9.1,0-16.5-7.4-16.5-16.5
				V463H951.4z M1002.3,458.8l3.8-20.9h13.5l3.8,20.9H1002.3z M927.9,458.8l3.8-20.9h13.5l3.8,20.9H927.9z"/>
		</g>
		<g>
			<path class="st0" d="M1288.4,417.8c0-19.2-15.6-34.8-34.8-34.8c-19.2,0-34.8,15.6-34.8,34.8c0,19.2,15.6,34.8,34.8,34.8
				C1272.7,452.6,1288.4,437,1288.4,417.8z M1222.9,417.8c0-16.9,13.8-30.7,30.7-30.7c16.9,0,30.7,13.8,30.7,30.7
				c0,16.9-13.8,30.7-30.7,30.7C1236.6,448.5,1222.9,434.7,1222.9,417.8z"/>
			<path class="st0" d="M1295.9,417.8c0-1.2-0.9-2.1-2.1-2.1s-2.1,0.9-2.1,2.1c0,21-17.1,38.2-38.2,38.2c-21,0-38.2-17.1-38.2-38.2
				c0-1.2-0.9-2.1-2.1-2.1s-2.1,0.9-2.1,2.1c0,22.6,17.9,41.2,40.3,42.3V511h-17c-1.2,0-2.1,0.9-2.1,2.1s0.9,2.1,2.1,2.1h38.2
				c1.2,0,2.1-0.9,2.1-2.1s-0.9-2.1-2.1-2.1h-17v-50.9C1278,459,1295.9,440.4,1295.9,417.8z"/>
			<path class="st0" d="M1261.9,428.1c0.4,0,0.9-0.1,1.3-0.4c0.9-0.7,1.1-2,0.4-2.9l-16.8-22.5c-0.7-0.9-2-1.1-2.9-0.4
				c-0.9,0.7-1.1,2-0.4,2.9l16.8,22.5C1260.7,427.8,1261.3,428.1,1261.9,428.1z"/>
			<path class="st0" d="M1258.6,434.1c0.4,0,0.9-0.1,1.3-0.4c0.9-0.7,1.1-2,0.4-2.9l-12-16c-0.7-0.9-2-1.1-2.9-0.4
				c-0.9,0.7-1.1,2-0.4,2.9l12,16C1257.3,433.8,1258,434.1,1258.6,434.1z"/>
		</g>
		<g>
			<path class="st0" d="M163.4,616.4c0-17.2-9.6-31.3-21.4-31.3s-21.4,14-21.4,31.3c0,17.2,9.6,31.3,21.4,31.3
				S163.4,633.7,163.4,616.4z M124.7,616.4c0-14.9,7.7-27.1,17.3-27.1c9.5,0,17.3,12.1,17.3,27.1c0,14.9-7.7,27.1-17.3,27.1
				C132.5,643.5,124.7,631.4,124.7,616.4z"/>
			<path class="st0" d="M178.7,614.3h-7.8C170.1,593,157.4,576,142,576s-28.2,17-28.9,38.3h-7.7c-1.2,0-2.1,0.9-2.1,2.1v36.3h-9.7
				c-1.2,0-2.1,0.9-2.1,2.1v27.1c0,1.2,0.9,2.1,2.1,2.1h7v49.8c0,1.2,0.9,2.1,2.1,2.1h9.1c1.2,0,2.1-0.9,2.1-2.1V684h56v49.8
				c0,1.2,0.9,2.1,2.1,2.1h9.1c1.2,0,2.1-0.9,2.1-2.1V684h7c1.2,0,2.1-0.9,2.1-2.1v-27.1c0-1.2-0.9-2.1-2.1-2.1h-9.5v-36.3
				C180.8,615.3,179.8,614.3,178.7,614.3z M176.6,618.5v34.2h-21.8c9.1-6.3,15.6-19.2,16.1-34.2H176.6z M117.2,615.8
				c0.2-19.7,11.3-35.6,24.8-35.6c13.7,0,24.8,16.3,24.8,36.3c0,20-11.1,36.3-24.8,36.3c-13.5,0-24.6-15.9-24.8-35.6
				c0.1-0.2,0.1-0.4,0.1-0.6C117.3,616.2,117.2,616,117.2,615.8z M107.5,618.5h5.6c0.5,15,7,27.8,16.1,34.2h-21.7V618.5z
				 M109.8,731.7h-4.9V684h4.9V731.7z M179.1,731.7h-4.9V684h4.9V731.7z M188.2,656.9v22.9h-7H172h-60.1h-9.1h-7v-22.9H188.2z"/>
			<circle class="st0" cx="142" cy="668.8" r="3.1"/>
			<path class="st0" d="M150.4,626.7c0.4,0,0.9-0.1,1.3-0.4c0.9-0.7,1.1-2,0.4-2.9l-16.8-22.5c-0.7-0.9-2-1.1-2.9-0.4
				c-0.9,0.7-1.1,2-0.4,2.9l16.8,22.5C149.1,626.5,149.8,626.7,150.4,626.7z"/>
			<path class="st0" d="M147,632.8c0.4,0,0.9-0.1,1.3-0.4c0.9-0.7,1.1-2,0.4-2.9l-12-16c-0.7-0.9-2-1.1-2.9-0.4s-1.1,2-0.4,2.9
				l12,16C145.8,632.5,146.4,632.8,147,632.8z"/>
		</g>
		<g>
			<circle class="st0" cx="404" cy="680.4" r="4.4"/>
			<path class="st0" d="M432.1,582.7h-53.8c-1.2,0-2.1,0.9-2.1,2.1v21.4h-4.4c-1.2,0-2.1,0.9-2.1,2.1v36.3h-5
				c-1.2,0-2.1,0.9-2.1,2.1v66.1V727c0,1.2,0.9,2.1,2.1,2.1h10.1c1.2,0,2.1-0.9,2.1-2.1v-12.1h51.3V727c0,1.2,0.9,2.1,2.1,2.1h10.1
				c1.2,0,2.1-0.9,2.1-2.1v-14.2v-54.5h48.4v67.5c0,1.2,0.9,2.1,2.1,2.1h8.4c1.2,0,2.1-0.9,2.1-2.1v-79.2c0-1.2-0.9-2.1-2.1-2.1
				h-60.5v-36.3c0-1.2-0.9-2.1-2.1-2.1h-4.4v-21.4C434.2,583.7,433.3,582.7,432.1,582.7z M380.4,586.9H430v48.2h-49.6V586.9z
				 M372.6,724.9h-5.9v-10h5.9V724.9z M438.2,724.9h-5.9v-10h5.9V724.9z M499.2,648.8v75H495v-67.5c0-1.2-0.9-2.1-2.1-2.1h-52.6
				c-1.2,0-2.1,0.9-2.1,2.1v54.5h-8h-55.5h-8v-62H499.2z M436.6,610.4v34.2h-62.7v-34.2h2.4v26.8c0,1.2,0.9,2.1,2.1,2.1h53.8
				c1.2,0,2.1-0.9,2.1-2.1v-26.8H436.6z"/>
			<path class="st0" d="M413.6,621.3c0.4,0,0.9-0.1,1.3-0.4c0.9-0.7,1.1-2,0.4-2.9l-16.8-22.5c-0.7-0.9-2-1.1-2.9-0.4
				c-0.9,0.7-1.1,2-0.4,2.9l16.8,22.5C412.4,621.1,413,621.3,413.6,621.3z"/>
			<path class="st0" d="M410.3,627.4c0.4,0,0.9-0.1,1.3-0.4c0.9-0.7,1.1-2,0.4-2.9l-12-16c-0.7-0.9-2-1.1-2.9-0.4
				c-0.9,0.7-1.1,2-0.4,2.9l12,16C409,627.1,409.6,627.4,410.3,627.4z"/>
		</g>
		<g>
			<path class="st0" d="M690.8,639.5c-16.1,3.2-28.2,17.4-28.2,34.4c0,11.8,5.9,22.8,15.8,29.3c0.3,0.2,0.7,0.3,1.2,0.3h36.4
				c0.4,0,0.8-0.1,1.2-0.3c9.9-6.5,15.8-17.5,15.8-29.3c0-17.2-12.5-31.6-28.9-34.6v-10.1c3.1-2,5.2-5.6,5.2-9.6
				c0-6.3-5.1-11.4-11.4-11.4c-6.3,0-11.4,5.1-11.4,11.4c0,3.7,1.8,7,4.6,9.1c0,0.1,0,0.1,0,0.2V639.5z M690.5,619.7
				c0-4,3.3-7.2,7.2-7.2s7.2,3.3,7.2,7.2c0,4-3.3,7.2-7.2,7.2S690.5,623.7,690.5,619.7z M699.8,630.9v7.9H695v-8
				c0.9,0.2,1.8,0.3,2.7,0.3C698.4,631.1,699.1,631.1,699.8,630.9z M697.7,643c17.1,0,30.9,13.9,30.9,30.9c0,10.2-5,19.7-13.4,25.5
				h-35.1c-8.4-5.8-13.4-15.3-13.4-25.5C666.8,656.9,680.7,643,697.7,643z"/>
			<path class="st0" d="M674.4,674.2c0-2.5,0.4-4.9,1.1-7.2c2.4-7.4,8.4-13,15.9-15c1.1-0.3,1.8-1.4,1.5-2.6
				c-0.3-1.1-1.4-1.8-2.6-1.5c-8.9,2.4-15.9,9-18.8,17.7c-0.9,2.7-1.4,5.6-1.4,8.5c0,1.2,0.9,2.1,2.1,2.1
				C673.5,676.3,674.4,675.3,674.4,674.2z"/>
		</g>
		<g>
			<path class="st0" d="M948.6,652.8c-0.7,16.4,4.7,39.9,15.1,50.8c1.3,1.3,2.6,2.4,4,3.3c-4.8,2.2-8.1,6.3-8.1,11
				c0,1.2,0.9,2.1,2.1,2.1h27.8c1.2,0,2.1-0.9,2.1-2.1c0-4.7-3.3-8.8-8.1-11c1.4-0.9,2.7-2,4-3.3c10.4-10.9,15.8-34.4,15.1-50.8
				c-1.1-24.9-13.8-29.3-22.3-30.2l5.9-4.5c0.8-0.6,1-1.6,0.7-2.5l-9.4-22.5c-0.3-0.8-1.1-1.3-1.9-1.3c-0.8,0-1.6,0.5-1.9,1.3
				l-9.4,22.5c-0.4,0.9-0.1,1.9,0.7,2.5l5.9,4.5C962.5,623.4,949.7,627.9,948.6,652.8z M987.1,715.8h-22.9c1.3-3.7,5.9-6.4,11.5-6.4
				C981.1,709.4,985.8,712.1,987.1,715.8z M968.8,615.8l6.9-16.4l6.9,16.4l-6.9,5.2L968.8,615.8z M975.6,626.6
				c11.2,0,21.8,3.2,22.8,26.3c0.8,17.7-5.3,38.7-13.9,47.7c-5.8,6-12,6-17.8,0c-8.6-9-14.8-30-13.9-47.7
				C953.8,629.8,964.4,626.6,975.6,626.6z"/>
			<path class="st0" d="M964.7,636.3c0.7-0.9,0.6-2.2-0.3-2.9c-0.9-0.7-2.2-0.6-2.9,0.3c-3.8,4.5-5.9,11.4-6.3,20.4
				c-0.1,3-0.1,6.3,0.2,9.6c0.1,1.1,1,1.9,2.1,1.9c0.1,0,0.1,0,0.2,0c1.2-0.1,2-1.1,1.9-2.3c-0.3-3.2-0.4-6.2-0.2-9
				C959.8,646.2,961.6,640.1,964.7,636.3z"/>
		</g>
		<g>
			<path class="st0" d="M1258,576.7h-8.8c-1.2,0-2.1,0.9-2.1,2.1v4.5c0,2.9-0.9,5.6-2.5,7.4c-1.4,1.7-2.7,2.4-4,2.3
				c-2.2-0.1-4.1,0.6-5.5,1.9c-2.5,2.4-2.7,6.1-2.7,6.5c0,0.4,0.1,0.8,0.3,1.2l3.8,5.8c-0.1,2.5-0.2,10.1,3.5,13.9
				c2.4,2.5,2.8,13.3,0,16.5c-10,11.7-4.7,46.2-4.5,47.6c0.2,1,1,1.8,2.1,1.8h14l-0.1,42.8h-8.8c-1.2,0-2.1,0.9-2.1,2.1
				s0.9,2.1,2.1,2.1h10.9c0,0,0,0,0,0h11c1.2,0,2.1-0.9,2.1-2.1s-0.9-2.1-2.1-2.1h-8.9l0.1-42.8h14c1,0,1.9-0.8,2.1-1.8
				c0.2-1.5,5.5-36-4.5-47.6c-2.8-3.3-2.4-14.1,0-16.5c3.8-3.8,3.7-11.4,3.5-13.9l3.6-5.5c0.2-0.3,0.3-0.7,0.3-1.1
				c0-0.4-0.1-4.3-2.6-6.8c-1.4-1.3-3.3-2-5.4-1.9c-1.3,0.1-2.6-0.7-4-2.3c-1.6-1.8-2.5-4.5-2.5-7.4v-4.5
				C1260.1,577.7,1259.2,576.7,1258,576.7z M1266.8,597.2c1,0,1.8,0.2,2.3,0.7c0.9,0.8,1.2,2.3,1.3,3.2l-3.6,5.5
				c-0.3,0.4-0.4,0.9-0.3,1.3c0.2,2.1,0.2,8.8-2.3,11.3c-4.1,4.2-4.2,17.5-0.2,22.2c6.8,8,5.3,31.9,3.8,42.5h-14.3h0h-14.3
				c-1.4-10.6-3-34.5,3.8-42.5c4-4.7,4-18-0.2-22.2c-2.5-2.5-2.5-9-2.3-11.3c0-0.5-0.1-0.9-0.3-1.3l-3.8-5.8
				c0.1-0.8,0.4-2.1,1.3-2.9c0.6-0.6,1.4-0.8,2.5-0.8c0.1,0,0.2,0,0.3,0c3.7,0,6.2-2.8,7-3.8c2.3-2.6,3.6-6.3,3.6-10.1v-2.4h4.6v2.4
				c0,3.9,1.3,7.6,3.6,10.1C1260.3,594.4,1262.9,597.3,1266.8,597.2z"/>
		</g>
		<g>
			<path class="st0" d="M201.7,818.9c1.2,0,2.1-0.9,2.1-2.1c0-1.2-0.9-2.1-2.1-2.1H82.2c-1.2,0-2.1,0.9-2.1,2.1
				c0,1.2,0.9,2.1,2.1,2.1h8.6v83h-1.9c-1.2,0-2.1,0.9-2.1,2.1s0.9,2.1,2.1,2.1h8c1.2,0,2.1-0.9,2.1-2.1s-0.9-2.1-2.1-2.1H95v-83
				h29.3c-0.6,1.5-0.6,3.1-0.1,4.5c0.4,1.1,1.6,1.6,2.7,1.2c1.1-0.4,1.6-1.6,1.2-2.7c-0.2-0.6-0.1-1.3,0.3-1.9
				c0.4-0.6,1.1-1.1,1.7-1.1c2.1,0,2.8,1.7,2.8,2.9c0,2.1-0.8,3.1-3.3,4.2c-0.2,0.1-0.4,0.2-0.5,0.3L103,842
				c-1.3,0.8-1.9,2.3-1.5,3.7c0.4,1.5,1.7,2.4,3.2,2.4h20.9h30.6h20.9c1.5,0,2.8-1,3.2-2.4c0.4-1.5-0.2-3-1.5-3.7l-23.4-14.2
				c1.5-1.3,2.6-3.2,2.6-6.1c0-1-0.2-2-0.6-2.9h31.5v83H187c-1.2,0-2.1,0.9-2.1,2.1s0.9,2.1,2.1,2.1h8c1.2,0,2.1-0.9,2.1-2.1
				s-0.9-2.1-2.1-2.1h-1.9v-83H201.7z M137.1,821.8c0-1-0.2-2-0.6-2.9h8.7c-0.6,1.5-0.6,3.1-0.1,4.5c0.4,1.1,1.6,1.6,2.7,1.2
				c1.1-0.4,1.6-1.6,1.2-2.7c-0.2-0.6-0.1-1.3,0.3-1.9c0.4-0.6,1.1-1.1,1.7-1.1c2.1,0,2.8,1.7,2.8,2.9c0,2.1-0.8,3.1-3.3,4.2
				c-0.2,0.1-0.4,0.2-0.5,0.3l-9.1,5.5l-6.4-3.9C136,826.6,137.1,824.7,137.1,821.8z M123.9,842c-0.8,0.5-1.3,1.2-1.5,2h-14.6
				l22.7-13.7l6.4,3.9L123.9,842z M128.7,844l12.2-7.4l12.2,7.4H128.7z M174,844h-14.6c-0.2-0.8-0.7-1.5-1.5-2l-13-7.8l6.4-3.9
				L174,844z"/>
		</g>
		<g>
			<path class="st0" d="M419,806.4c-0.2,0.1-0.4,0.2-0.5,0.3l-9,5.5c0,0,0,0,0,0c-3,1.8-3,1.8-6.9,4.2l-12.3,7.4
				c-1.3,0.8-1.9,2.4-1.5,3.8c0.4,1.5,1.7,2.5,3.3,2.5h8.5c-0.5,1.6-1,2.8-1.6,3.3c-0.4,0.4-0.7,0.9-0.7,1.5c0,0.3-0.1,7.2,4,13.3
				c3.4,5.1,4.6,14,0.1,20.5c-10.5,15.2-13.2,53.7-13.3,55.4c0,0.6,0.2,1.1,0.6,1.6c0.4,0.4,0.9,0.7,1.5,0.7h57.7
				c0.6,0,1.1-0.2,1.5-0.7c0.4-0.4,0.6-1,0.6-1.6c-0.1-1.6-2.8-40.2-13.3-55.4c-4.5-6.5-3.3-15.5,0.1-20.5c4.1-6,4-13,4-13.3
				c0-0.6-0.3-1.1-0.7-1.5c-0.6-0.5-1.1-1.7-1.6-3.3h8.5c1.6,0,2.9-1,3.3-2.5c0.4-1.5-0.2-3-1.5-3.8l-12.3-7.4
				c-3.9-2.4-3.9-2.4-6.9-4.2c0,0,0,0,0,0l-6.4-3.8c1.6-1.4,3-3.4,3-6.6c0-3.7-2.8-7.5-7.4-7.5c-2.1,0-4.2,1.1-5.5,3
				c-1.3,1.9-1.6,4.2-0.8,6.1c0.4,1.1,1.6,1.6,2.7,1.2c1.1-0.4,1.6-1.6,1.2-2.7c-0.3-0.7-0.1-1.5,0.4-2.2c0.5-0.7,1.3-1.2,2-1.2
				c2.4,0,3.2,2,3.2,3.3C422.7,804.1,421.8,805.3,419,806.4z M401.8,822.2c0,1.2-0.1,2.5-0.3,3.8h-6.7l7-4.2
				C401.8,821.9,401.8,822,401.8,822.2z M445,826h-6.7c-0.2-1.3-0.3-2.6-0.3-3.8c0-0.1,0-0.3,0-0.4L445,826z M428.7,828.4
				c1.1-4,1.8-8.1,2.2-10.9l2.8,1.7c-0.1,0.6-0.1,1.1,0,1.7c0,0.3,0.1,0.7,0.1,1.3c0,1.5,0.2,3.9,0.7,6.3c0,0,0,0,0,0
				c0.5,2.7,1.4,5.5,2.8,7.3c-0.1,1.8-0.6,6.2-3.2,10.1c-4.2,6.2-5.7,17.2-0.1,25.3c8.5,12.3,11.7,42.6,12.4,51h-53.1
				c0.7-8.5,3.9-38.8,12.4-51c5.6-8.1,4.1-19-0.1-25.3c-2.6-3.9-3.1-8.4-3.2-10.1c1.4-1.7,2.3-4.6,2.8-7.3c0,0,0,0,0,0
				c0.5-2.4,0.7-4.8,0.7-6.3c0-0.5,0-0.9,0.1-1.3c0-0.6,0.1-1.1,0-1.7l2.8-1.7c0.4,2.8,1.1,6.9,2.2,10.9c0,0.2,0.1,0.4,0.2,0.6
				c1.8,5.9,4.5,11.4,8.7,11.4c4.2,0,6.9-5.5,8.7-11.4C428.6,828.8,428.7,828.6,428.7,828.4z M415.9,830.2h7.9c-1.4,3.8-2.9,6-3.9,6
				C418.8,836.2,417.3,834,415.9,830.2z M427,815.1c-0.4,4.1-1.1,7.8-1.9,10.9h-10.4c-0.8-3.1-1.5-6.8-1.9-10.9l7.2-4.3L427,815.1z"
				/>
		</g>
		<g>
			<path class="st0" d="M757.5,804.3c1.2,0,2.1-0.9,2.1-2.1s-0.9-2.1-2.1-2.1H638c-1.2,0-2.1,0.9-2.1,2.1s0.9,2.1,2.1,2.1h8.6v112.1
				h-1.9c-1.2,0-2.1,0.9-2.1,2.1s0.9,2.1,2.1,2.1h8c1.2,0,2.1-0.9,2.1-2.1s-0.9-2.1-2.1-2.1h-1.9V804.3h41.3
				c-0.3,1.2-0.3,2.4,0.1,3.5c0.4,1.1,1.6,1.6,2.7,1.2c1.1-0.4,1.6-1.6,1.2-2.7c-0.2-0.5,0.1-1.1,0.2-1.3c0.3-0.4,0.7-0.7,1.1-0.7
				c1.6,0,2,1.5,2,2c0,1.4-0.4,2.2-2.5,3.1c-0.2,0.1-0.3,0.2-0.5,0.3l-6.9,4.2c0,0,0,0,0,0c-2.3,1.4-2.3,1.4-5.3,3.2l-9.4,5.7
				c-1.2,0.7-1.8,2.1-1.4,3.5c0.4,1.4,1.6,2.3,3,2.3h5.8c-0.3,0.8-0.6,1.4-0.9,1.6c-0.4,0.4-0.7,0.9-0.7,1.5c0,0.2-0.1,5.7,3.1,10.5
				c2.5,3.8,3.4,10.4,0.1,15.2c-8.2,11.8-10.2,41.4-10.3,42.7c0,0.6,0.2,1.1,0.6,1.6c0.4,0.4,0.9,0.7,1.5,0.7h44.2
				c0.6,0,1.1-0.2,1.5-0.7c0.4-0.4,0.6-1,0.6-1.6c-0.1-1.3-2.1-30.9-10.3-42.7c-3.3-4.8-2.4-11.4,0.1-15.2
				c3.2-4.8,3.1-10.2,3.1-10.5c0-0.6-0.3-1.1-0.7-1.5c-0.3-0.2-0.6-0.8-0.9-1.6h5.8c1.4,0,2.6-0.9,3-2.3c0.4-1.4-0.2-2.8-1.4-3.5
				l-9.4-5.7c-3-1.8-3-1.8-5.3-3.2c0,0,0,0,0,0l-4.3-2.6c1.1-1.1,1.9-2.7,1.9-5c0-0.7-0.1-1.4-0.3-2h41.4v112.1h-1.9
				c-1.2,0-2.1,0.9-2.1,2.1s0.9,2.1,2.1,2.1h8c1.2,0,2.1-0.9,2.1-2.1s-0.9-2.1-2.1-2.1h-1.9V804.3H757.5z M683.2,824.5h-3l3.1-1.9
				C683.4,823.2,683.3,823.8,683.2,824.5z M715.2,824.5h-3c-0.1-0.6-0.1-1.3-0.2-1.9L715.2,824.5z M705,827c0.8-2.8,1.3-5.6,1.6-7.7
				l1.3,0.8c0,0.4,0,0.7,0,1.1c0,0.2,0,0.5,0,0.9c0,1.2,0.2,3,0.5,4.9c0,0.1,0,0.1,0,0.2c0.4,2.1,1.1,4.2,2.1,5.6
				c-0.1,1.4-0.5,4.6-2.4,7.3c-3.4,5-4.5,13.5-0.1,19.9c6.3,9.1,8.7,31.2,9.4,38.3h-39.6c0.6-7.1,3.1-29.3,9.4-38.3
				c4.4-6.4,3.3-14.9-0.1-19.9c-1.9-2.8-2.3-5.9-2.4-7.3c1-1.4,1.7-3.5,2.1-5.6c0-0.1,0-0.1,0-0.2c0.4-1.9,0.5-3.7,0.5-4.9
				c0-0.4,0-0.7,0-0.9c0-0.4,0-0.7,0-1.1l1.3-0.8c0.3,2.1,0.8,5,1.6,7.7c0,0,0,0,0,0.1c1.4,4.8,3.7,9.4,7.2,9.4
				C701.3,836.5,703.6,831.9,705,827C705,827,705,827,705,827z M695.4,828.6h4.6c-0.9,2.2-1.7,3.5-2.3,3.7
				C697.2,832.2,696.3,830.9,695.4,828.6z M702.7,816.9c-0.3,2.9-0.8,5.4-1.3,7.6h-7.2c-0.6-2.2-1-4.7-1.3-7.6l5-3L702.7,816.9z"/>
		</g>
		<g>
			<path class="st0" d="M996.1,815.2h-71.6c-1.2,0-2.1,0.9-2.1,2.1v86.1c0,1.2,0.9,2.1,2.1,2.1h40.9h61.5c1.2,0,2.1-0.9,2.1-2.1
				v-45.9c0-1.2-0.9-2.1-2.1-2.1h-28.7v-38.1C998.2,816.2,997.2,815.2,996.1,815.2z M963.2,857.5v43.8h-36.7v-81.9H994v36h-28.7
				C964.1,855.4,963.2,856.3,963.2,857.5z M1024.7,859.6v41.8h-57.3v-41.8H1024.7z"/>
			<path class="st0" d="M934.9,823.3c-1.7,0-3,1.3-3,3c0,1.1,0.6,2,1.4,2.5c2.1,10.4,13.4,18.3,27,18.3c14.1,0,25.8-8.5,27.2-19.4
				c0.6-0.6,1.1-1.4,1.1-2.3c0-1.7-1.3-3-3-3s-3,1.3-3,3c0,0.8,0.3,1.4,0.8,2c-1.3,8.7-11.1,15.6-23,15.6c-11.6,0-21.3-6.5-22.9-15
				c0.3-0.5,0.5-1,0.5-1.7C937.9,824.7,936.5,823.3,934.9,823.3z"/>
			<path class="st0" d="M976,863.6c-0.3-0.3-0.6-0.5-1-0.6c-0.2-0.1-0.5-0.1-0.7-0.1c-1.4,0-2.6,1.3-2.6,3c0,0.9,0.3,1.7,0.9,2.2
				c1.7,10.5,11.6,18.6,23.5,18.6c12.4,0,22.6-8.7,23.7-19.8c0.4-0.5,0.6-1.2,0.6-1.9c0-1.7-1.2-3-2.6-3s-2.6,1.3-2.6,3
				c0,0.6,0.2,1.1,0.4,1.6c-0.9,8.9-9.3,15.9-19.5,15.9c-10,0-18.3-6.8-19.5-15.5c0.1-0.4,0.2-0.8,0.2-1.2
				C976.9,865,976.5,864.2,976,863.6z"/>
		</g>
		<g>
			<path class="st0" d="M1273.8,909.3c1.2,0,2.1-0.9,2.1-2.1V796.3c0-1.2-0.9-2.1-2.1-2.1h-40.6c-1.2,0-2.1,0.9-2.1,2.1v110.9
				c0,1.2,0.9,2.1,2.1,2.1H1273.8z M1235.3,798.4h36.4v106.7h-36.4V798.4z"/>
			<path class="st0" d="M1264.4,882.8c0.4,0,0.9-0.1,1.3-0.4c0.9-0.7,1.1-2,0.4-2.9l-21.7-29c-0.7-0.9-2-1.1-2.9-0.4
				c-0.9,0.7-1.1,2-0.4,2.9l21.7,29C1263.1,882.6,1263.8,882.8,1264.4,882.8z"/>
			<path class="st0" d="M1260.1,890.6c0.4,0,0.9-0.1,1.3-0.4c0.9-0.7,1.1-2,0.4-2.9l-15.5-20.6c-0.7-0.9-2-1.1-2.9-0.4
				c-0.9,0.7-1.1,2-0.4,2.9l15.5,20.6C1258.8,890.3,1259.4,890.6,1260.1,890.6z"/>
			<path class="st0" d="M1280.9,787.3h-54.8c-1.2,0-2.1,0.9-2.1,2.1v52.8h-7c-1.2,0-2.1,0.9-2.1,2.1v87c0,1.2,0.9,2.1,2.1,2.1h73
				c1.2,0,2.1-0.9,2.1-2.1v-87c0-1.2-0.9-2.1-2.1-2.1h-7v-52.8C1283,788.3,1282.1,787.3,1280.9,787.3z M1228.2,791.5h50.6V912h-50.6
				V791.5z M1287.9,846.4v82.8h-68.9v-82.8h4.9v67.7c0,1.2,0.9,2.1,2.1,2.1h54.8c1.2,0,2.1-0.9,2.1-2.1v-67.7H1287.9z"/>
		</g>
	</g>
	<g>
		<path class="st0" d="M515.2,77.6c-0.6,1.2-1.5,2.5-2.5,4c-1.1,1.5-2.2,2.7-3.4,3.5c-4.4-1.7-8-2.6-10.8-2.6
			c-3.1,0-5.5,1.7-5.5,3.8c0,3.6,5.4,4.5,7.6,4.5c3.5-0.1,6.5-0.8,9-2.2c1.7,0.7,3,1.2,4,1.6c1,0.4,2.2,0.7,3.8,1.1
			c1.5,0.4,2.9,0.6,4.2,0.6c7.4,0,14.2-2.9,18.7-7.4s7.3-10.7,7.3-17c0-7.4-4.4-14.1-12.2-17.6c-3.5-1.6-7.8-2.4-12.6-2.4
			c-7.1,0-13.5,2.1-17.8,5.2c-2.1,1.5-3.9,3.3-5.4,5.2c-3,3.9-4.4,7.9-4.4,11.7c0,5.7,2.8,10.6,7.9,12.4c2.1,0.7,3.1-2,1.2-2.8
			c-3.8-1.6-6.1-5.3-6.1-9.6c-0.2-4.8,2.9-10.7,8.5-14.7c3.8-2.6,9.5-4.4,16-4.4c1.9,0,3.5,0.1,4.8,0.3c0.8,0.2,0.9,0.7,0.3,1.5
			c-1.6,2.4-3.4,5.7-5.3,9.9l-4.6,10.2v-0.1C516.7,74.6,515.8,76.4,515.2,77.6z M504.7,87.3c-1.3,0.3-2.7,0.4-4.2,0.4
			c-3.1,0-4.7-0.5-4.7-1.5c0-0.4,0.9-0.9,2.4-0.9c1.7,0,3.8,0.4,6.4,1.3C505.3,86.9,505.2,87.1,504.7,87.3z M520.6,73.2l4.6-10.1
			c2.4-5.2,4.3-8.7,5.6-10.5c0.7-1.1,1.3-1.1,2.1-0.6c7.4,2.8,11.4,8.7,11.4,15.2c0,7.5-4,14.4-11.1,18.4c-3.5,2-7.4,3-11.7,3
			c-1.6,0-4.4-0.7-8.3-2c-0.5-0.2-0.6-0.4-0.3-0.7C515.3,83.3,517.8,79.1,520.6,73.2z"/>
		<path class="st0" d="M556.3,61.1l-8.5,18.7c-1.2,2.7-1.7,4.9-1.7,6.8c0,3.6,1.7,6.5,4.7,6.5c2.2,0,2.1-3,0-3c-1,0-1.6-1.6-1.6-3.4
			c0-1.7,0.4-3.6,1.3-5.6l6.9-14.7c0.1,0.6,0.6,1,1.4,1.3s1.3,0.7,1.3,1.2c0,0.4-0.2,1-0.5,1.9l-4.2,9c-0.6,1.1-0.8,2.2-0.8,3.3
			c0,2.8,1.6,4.2,4.7,4.2c1.6,0,3.1-0.7,4.4-2c1.3-1.3,2.3-2.8,2.9-4.3c0.3-0.9,0.1-1.5-0.8-1.8c-0.8-0.3-1.5-0.1-1.9,0.7
			c-0.6,1.1-0.6,1.3-1.5,2.6c-0.9,1.3-1.9,1.9-3.1,1.9c-2.1,0-1.6-2-1.1-3.3l4.3-9.3c0.6-1.6,0.8-2.6,0.8-3.3c0-2.2-1.5-3.3-2.8-3.4
			c-1.2-0.2-2.2-1.1-1.3-2.7C560.2,60.1,557.2,58.9,556.3,61.1z"/>
		<path class="st0" d="M569,77.5c0.7,0.2,1.3,0.2,1.6,0.2c3.6,0,6.2-2.2,7.9-6.7c0.3-0.8,0.4-1.6,0.4-2.4c0-2.4-1.6-3.8-4.3-3.8
			s-5.1,2-7,6.1l-3,6.4c-0.8,1.7-1.2,3.3-1.2,4.4c0,3.5,2.7,5.4,6.6,5.4c2,0,3.8-0.6,5.6-1.9c1.7-1.3,3-2.8,3.8-4.4
			c1-1.9-1.6-3.2-2.6-1.2c-1.2,2.2-3.8,4.6-6.7,4.6c-2.2-0.1-3.4-1-3.4-2.8c0-0.7,0.3-1.8,0.9-3.3C567.8,77.5,568.3,77.3,569,77.5z
			 M569.9,73.2l0.7-1.6c1.2-2.8,2.5-4,4-3.8c1.2,0.2,1.4,1.2,0.6,3c-1.1,2.6-2.5,3.9-4.3,3.9C569.9,74.7,569.5,74.2,569.9,73.2z"/>
		<path class="st0" d="M586.3,87.3c1.6,0,3.1-0.7,4.4-2c1.3-1.3,2.3-2.8,2.9-4.3c0.3-0.9,0.1-1.5-0.8-1.8c-0.8-0.3-1.5-0.1-1.9,0.7
			c-0.6,1.1-0.6,1.3-1.5,2.6c-0.9,1.3-1.9,1.9-3.1,1.9C584.4,84.3,584.4,87.3,586.3,87.3z"/>
		<path class="st0" d="M578.9,84.3c-0.5,0-1-0.1-1.4-0.2c-0.6-0.2-1.1-0.5-1.3-0.9c-1.6-1.5-3.5,0.8-2.3,2.1
			c0.7,0.8,1.5,1.3,2.2,1.6c0.8,0.3,1.7,0.4,2.7,0.4c2.5,0,4.7-1,6.5-2.8c1.9-1.9,2.9-4,3-6.6c0.1-1.3-0.3-3.1-1-5.6
			c-0.8-2.4-1.1-4.2-1-5.2c0.1-0.6,0.3-1.3,0.6-2.2l0.3-0.6c1-2.4-2-3.3-2.9-1.1c-4.3,9.6-6.8,15.1-7.5,16.5c-1,2,1.7,3.2,2.7,1.2
			c0.3-0.6,0.8-1.8,1.6-3.7c0.8-1.9,1.5-3.3,2-4.2c0.7-1.3,0.5-1.4,1.2,0c0.8,1.8,1.1,3.4,1,4.8C584.9,81.5,582.3,84.3,578.9,84.3z"
			/>
		<path class="st0" d="M593.1,84.3c-0.5,0-1-0.1-1.4-0.2c-0.6-0.2-1.1-0.5-1.3-0.9c-1.6-1.5-3.5,0.8-2.3,2.1
			c0.7,0.8,1.5,1.3,2.2,1.6c0.8,0.3,1.7,0.4,2.7,0.4c2.5,0,4.7-1,6.5-2.8c1.9-1.9,2.9-4,3-6.6c0.1-1.3-0.3-3.1-1-5.6
			c-0.8-2.4-1.1-4.2-1-5.2c0.1-0.6,0.3-1.3,0.6-2.2l0.3-0.6c1-2.4-2-3.3-2.9-1.1c-4.3,9.6-6.8,15.1-7.5,16.5c-1,2,1.7,3.2,2.7,1.2
			c0.3-0.6,0.8-1.8,1.6-3.7c0.8-1.9,1.5-3.3,2-4.2c0.7-1.3,0.5-1.4,1.2,0c0.8,1.8,1.1,3.4,1,4.8C599.2,81.5,596.5,84.3,593.1,84.3z"
			/>
		<path class="st0" d="M600.5,87.3c1.6,0,3.1-0.7,4.4-2c1.3-1.3,2.3-2.8,2.9-4.3c0.3-0.9,0.1-1.5-0.8-1.8c-0.8-0.3-1.5-0.1-1.9,0.7
			c-0.6,1.1-0.6,1.3-1.5,2.6c-0.9,1.3-1.9,1.9-3.1,1.9C598.6,84.3,598.6,87.3,600.5,87.3z"/>
		<path class="st0" d="M611.3,66.1l-6.2,13.8c-0.5,1.2-0.8,2.3-0.8,3.1c0,2.8,1.6,4.2,4.7,4.2c1.6,0,3.1-0.7,4.4-2
			c1.3-1.3,2.3-2.8,2.9-4.3c0.3-0.9,0.1-1.5-0.8-1.8c-0.8-0.3-1.5-0.1-1.9,0.7c-1.5,3-3,4.4-4.6,4.4c-1,0-1.5-0.4-1.6-1.2
			c-0.1-0.8,0.1-1.6,0.4-2.2l6.3-13.7C615.1,65.3,612.1,64.2,611.3,66.1z"/>
		<path class="st0" d="M615.6,62.4c1.3,0,2.4-1,2.6-2.2c0.3-1.3-0.7-2.5-2.1-2.5c-1.2,0-2.4,1-2.6,2.3
			C613.3,61.2,614.2,62.4,615.6,62.4z"/>
		<path class="st0" d="M629.1,72.3c0.6-1.1,0.8-2.2,0.8-3.2c0-2.8-1.9-4.5-4.6-4.3c-1.1,0.1-2.2,0.7-2.7,1.3
			c-0.1-0.7-0.5-1.1-1.3-1.1c-0.6,0-1.1,0.3-1.5,1l-6.3,13.8c-1.4,3-2.9,4.4-4.6,4.4s-1.8,2.9,0,2.9c4,0,6.6-4.3,7.4-6.2l4.3-9.4
			c0.7-1.7,2.6-3.8,4.7-3.8c1.1,0,1.6,0.4,1.6,1.3c0,0.4-0.2,1-0.5,1.9l-4.1,8.8c-0.6,1.2-0.8,2.3-0.8,3.3c0,2.8,1.6,4.2,4.7,4.2
			c1.6,0,3.1-0.7,4.4-2c1.3-1.3,2.3-2.8,2.9-4.3c0.3-0.9,0.1-1.5-0.8-1.8c-0.8-0.3-1.5-0.1-1.9,0.7c-1.5,3-3,4.4-4.6,4.4
			c-1.1,0-1.6-0.4-1.6-1.3c0-0.6,0.2-1.2,0.6-2L629.1,72.3z"/>
		<path class="st0" d="M624.2,91.2c2,0,2-2.9,0-2.9c-1.8,0.1-3.3,0.7-4.4,2c-1.1,1.3-1.7,2.7-1.7,4.2c0,3.4,2.5,6.1,7.4,6.1
			c5.2,0,9.7-4,13.4-12.2l7.4-16.2l2.2-4.9c0.7-2.4-2-2.3-2.8-0.7c-0.6-1.2-1.9-1.7-3.6-1.7c-3,0-5.4,2-7.2,6.1l-4.2,8.9
			c-0.5,1.4-0.8,2.4-0.8,3.1c0,2.8,1.9,4.3,4.9,4.3c0.7,0,1.3-0.3,1.9-0.8l-0.3,0.8c-1.3,3.1-3,5.6-5.1,7.5c-2,2-4,3-5.9,3
			c-3,0-4.3-1.4-4.3-3.2C621.1,93,622.3,91.4,624.2,91.2z M634.9,84.3c-1.3,0-1.9-0.4-1.9-1.3c0-0.4,0.2-1,0.5-1.9l4-8.7
			c1.4-3.1,2.9-4.7,4.7-4.7c1.2,0,1.8,0.6,1.8,1.7c0,0.4-0.2,1-0.4,1.6l-4.2,9.2v-0.1c-0.1,0.1-0.5,1-0.7,1.1
			c-0.1,0.1-0.2,0.3-0.3,0.6c-0.3,0.5-0.3,0.6-0.7,1.1C637,83.8,636.1,84.3,634.9,84.3z"/>
		<path class="st0" d="M689.3,63.3l-4.3,9.2c-2.6,5.8-5.2,9.7-7.8,11.9c-2.5,2.1-5.6,3.2-9.3,3.2c-2.8,0-5.1-1.1-5.3-2.5
			c-0.2-0.8-0.7-1.3-1.5-1.3c-0.8,0-1.6,0.6-1.6,1.5c0,1.5,0.9,2.8,2.7,3.8c1.9,1,3.8,1.5,6,1.5c7.6-0.1,13.3-4.2,17.1-12.2l6.7-14
			c1.9-4.2,3.5-7.4,4.9-9.4c0.6-1,0.7-1.1,1.8-0.2c3.4,2.8,5.1,6.1,5.1,9.9c-0.1,3.7-1.3,6.9-3.9,9.6c-2.5,2.6-5.3,4.1-8.5,4.4
			c-1.9,0.1-2.4,1.6-1.3,3.6c0.6,1.1,1.3,2.5,2.2,4.5s1.5,3.1,1.6,3.4l-0.1-0.1c0.6,1.3,1,2.4,1.3,3.1c0.3,0.7,0.8,1.7,1.4,2.9
			c0.6,1.2,1.2,2.2,1.6,2.9c0.9,1.4,2.4,3.9,3.7,5c1.3,1.2,3.1,2.8,4.9,3.5c1.9,0.7,4.2,1.3,6.7,1.3c3.7,0,6.6-1,8.7-3
			c2.1-2,3.1-4.3,3.1-6.8c0-2.6-0.9-4.6-2.8-6.1c-0.2-0.1-0.3-0.2-0.4-0.3c-0.8-0.3-1.5-0.1-2,0.7c-0.4,0.7-0.3,1.3,0.3,1.8
			c1.2,1.1,1.9,2.4,1.9,3.7c0,1.8-0.8,3.4-2.3,4.8c-1.5,1.4-3.7,2.1-6.4,2.1c-2.5,0-4.9-0.9-6.7-1.9c-1.7-1-3.7-3.3-4.8-4.9
			c-0.6-0.7-1.2-1.9-2-3.3c-0.7-1.4-1.3-2.5-1.7-3.4c-0.4-0.8-1-2-1.7-3.7c-0.3-0.7-0.8-1.8-1.5-3.2c-0.6-1.5-1.1-2.5-1.4-3.1
			c-0.4-0.9-0.4-1,0.7-1.3c3.5-1,6.5-2.9,8.9-5.8c2.4-3,3.6-6.5,3.6-10.6c0-5-2.8-9.7-7.2-13.1c-4-3.3-9-4.9-15-4.9
			c-8.3,0-14.8,2.9-18.5,7.1c-3.6,4.2-5.4,8.9-5.4,13.7c0,6.5,3.4,12.1,9.6,14.6l-0.1-0.1c0.1,0.1,0.4,0.2,0.8,0.2
			c0.8,0,1.6-0.7,1.6-1.5c0-0.7-0.4-1.2-1.2-1.6c-4.8-2-7.6-6.6-7.6-11.6c0.2-5.6,2.9-12.6,11.2-16c2.8-1.2,6-1.7,9.7-1.7
			s6.8,0.7,9.6,2.1c1,0.4,1,0.6,0.3,1.6C693,55.9,691.2,59.1,689.3,63.3z"/>
		<path class="st0" d="M717,81.1l4.2-8.8c0.6-1.1,0.8-2.2,0.8-3.2c0-2.8-1.9-4.3-4.9-4.3c-2.9,0-5.3,2-7.2,6.1l-4.2,8.9
			c-0.5,1.1-0.8,2.2-0.8,3.1c0,2.8,1.9,4.3,4.9,4.3C712.6,87.3,715,85.2,717,81.1z M707.8,83c0-0.6,0.2-1.2,0.5-1.9l4-8.7
			c0.7-1.3,0.7-1.4,1.5-2.8c0.9-1.3,2-2,3.1-2c1.9,0,2.4,1.1,1.4,3.2l-4,8.8c-1.5,3.1-3,4.6-4.7,4.6C708.4,84.3,707.8,83.9,707.8,83
			z"/>
		<path class="st0" d="M732.1,81.1l4.2-8.8c0.6-1.1,0.8-2.2,0.8-3.2c0-2.8-1.9-4.3-4.9-4.3c-2.9,0-5.3,2-7.2,6.1l-4.2,8.9
			c-0.5,1.1-0.8,2.2-0.8,3.1c0,2.8,1.9,4.3,4.9,4.3C727.7,87.3,730.1,85.2,732.1,81.1z M722.9,83c0-0.6,0.2-1.2,0.5-1.9l4-8.7
			c0.7-1.3,0.7-1.4,1.5-2.8c0.9-1.3,2-2,3.1-2c1.9,0,2.4,1.1,1.4,3.2l-4,8.8c-1.5,3.1-3,4.6-4.7,4.6C723.5,84.3,722.9,83.9,722.9,83
			z"/>
		<path class="st0" d="M760.1,72.3c0.6-1.1,0.8-2.2,0.8-3.2c0-2.7-1.7-4.3-4.6-4.3c-1.6,0-3.1,0.7-4.6,2.2c-0.7-1.5-2-2.2-3.9-2.2
			c-1.1,0-2.5,0.7-3,1.3c-0.1-0.7-0.5-1.1-1.2-1.1s-1.2,0.3-1.5,1l-6.3,13.8c-1.4,3-2.9,4.5-4.6,4.5s-1.8,2.9,0,2.9
			c4,0,6.6-4.3,7.4-6.2l4.3-9.4c0.7-1.7,2.6-3.8,4.7-3.8c1.1,0,1.6,0.4,1.6,1.3c0,0.5-0.2,1.1-0.5,2l-6.5,13.8
			c-0.2,0.3-0.2,0.6-0.2,0.8c0,0.7,0.4,1.1,1.1,1.1c1,0.1,1.7-0.3,2.2-1.4l6.2-13.4c1.1-2.2,2.9-4.3,4.9-4.3c1,0,1.5,0.4,1.5,1.3
			c0,0.4-0.2,1-0.5,1.9l-4.1,8.8c-0.6,1.2-0.8,2.3-0.8,3.3c0,2.8,1.6,4.2,4.7,4.2c1.6,0,3.1-0.7,4.4-2c1.3-1.3,2.3-2.8,2.9-4.3
			c0.3-0.9,0.1-1.5-0.8-1.8c-0.8-0.3-1.5-0.1-1.9,0.7c-1.5,3-3,4.4-4.6,4.4c-1.1,0-1.6-0.4-1.6-1.3c0-0.6,0.2-1.2,0.6-2L760.1,72.3z
			"/>
		<path class="st0" d="M774.3,81.3c-0.1,3.3,1,6.4,3.2,9.1c2.3,2.7,6.6,4.5,12.1,4.5c4,0,7.4-1.3,10.2-3.9c2.8-2.5,4.4-5.4,4.9-8.7
			c0.3-2.5-0.4-4.8-2-6.9c-1.6-2-3.7-3-6.3-3c-2.5-0.1-4.5,0.6-6.1,2c-1.6,1.4-2.4,2.9-2.4,4.7c0,1.2,0.4,1.8,1.4,1.8
			c0.8,0,1.5-0.7,1.6-1.8c0.1-1.9,2.2-3.6,5.2-3.5c1.7,0,3.2,0.7,4.3,2s1.5,2.8,1.3,4.5c-0.2,2.5-1.5,4.8-3.7,6.7
			c-2.2,2-4.9,2.9-8.2,2.9c-3.8,0-6.8-1.1-8.9-3.2c-2.1-2.1-3.3-4.6-3.3-7.2c0.3-3.4,2.2-6.3,5.6-9c3.5-2.6,7.6-3.9,12.2-3.6h1.3
			c2.2,0,2.3-3.2-0.1-3.2h-1c-3.8-0.1-5.7-2.5-5.5-6.2c0.1-2.6,1.3-4.9,3.8-6.9c2.5-2,5.4-2.9,8.7-2.9c3,0,5.4,0.7,7.3,2.1
			c1.9,1.4,2.8,3,2.8,4.8c0,1.6-0.6,3-1.8,4.2c-1.2,1.2-2.6,1.8-4.2,1.8c-2.8,0.1-4.3-1.5-4.3-3.3c0-0.8,0.2-1.4,0.7-1.9
			c0.7-0.8,0.7-1.5,0.1-2.1c-0.6-0.6-1.4-0.6-2.2,0.1c-1,0.8-1.5,2.1-1.5,3.8c-0.1,1.6,0.5,3.1,1.8,4.4c1.3,1.3,3.1,1.9,5.4,1.9
			c2.5,0,4.7-1,6.4-2.8c1.7-1.9,2.6-4,2.6-6.5c-0.1-2.5-1.2-4.8-3.7-6.7c-2.4-2-5.5-2.9-9.3-2.9c-4.1,0-7.7,1.3-10.8,3.8
			c-3.1,2.5-4.7,5.5-4.8,8.9c-0.1,2.6,0.7,5,2.1,7.2c-4.3,0.8-7.9,2.6-10.6,5.5C775.7,74.9,774.3,78,774.3,81.3z"/>
		<path class="st0" d="M823.8,54.7c1.2-2.4-1.8-3.2-2.8-1.2l-12.1,26.3c-0.6,1.2-0.8,2.3-0.8,3.3c0,2.8,1.6,4.2,4.7,4.2
			c1.6,0,3.1-0.7,4.4-2c1.3-1.3,2.3-2.8,2.9-4.3c0.3-0.9,0.1-1.5-0.8-1.8c-0.8-0.3-1.5-0.1-1.9,0.7c-0.6,1.1-0.6,1.3-1.5,2.6
			c-0.9,1.3-1.9,1.9-3.1,1.9c-2.1,0-1.6-2-1.1-3.3L823.8,54.7z"/>
		<path class="st0" d="M822.8,77.5c0.7,0.2,1.3,0.2,1.6,0.2c3.6,0,6.2-2.2,7.9-6.7c0.3-0.8,0.5-1.6,0.5-2.4c0-2.4-1.6-3.8-4.3-3.8
			s-5.1,2-7,6.1l-3,6.4c-0.8,1.7-1.2,3.3-1.2,4.4c0,3.5,2.7,5.4,6.6,5.4c2,0,3.8-0.6,5.6-1.9c1.7-1.3,3-2.8,3.8-4.4
			c1-1.9-1.6-3.2-2.6-1.2c-1.2,2.2-3.8,4.6-6.7,4.6c-2.2-0.1-3.4-1-3.4-2.8c0-0.7,0.3-1.8,0.9-3.3C821.5,77.5,822,77.3,822.8,77.5z
			 M823.7,73.2l0.7-1.6c1.2-2.8,2.5-4,4-3.8c1.2,0.2,1.4,1.2,0.6,3c-1.1,2.6-2.5,3.9-4.3,3.9C823.7,74.7,823.3,74.2,823.7,73.2z"/>
		<path class="st0" d="M854.7,72.3c0.6-1.1,0.8-2.2,0.8-3.2c0-2.7-1.7-4.3-4.6-4.3c-1.6,0-3.1,0.7-4.6,2.2c-0.7-1.5-2-2.2-3.9-2.2
			c-1.1,0-2.5,0.7-3,1.3c-0.1-0.7-0.5-1.1-1.2-1.1c-0.7,0-1.2,0.3-1.5,1l-6.3,13.7c-1,2.2,1.7,3.2,2.6,1.2l4.4-9.4
			c0.7-1.7,2.6-3.8,4.7-3.8c1.1,0,1.6,0.4,1.6,1.3c0,0.5-0.2,1.1-0.5,2l-6.5,13.8c-0.2,0.3-0.2,0.6-0.2,0.8c0,0.7,0.4,1.1,1.1,1.1
			c1,0.1,1.7-0.3,2.2-1.4l6.2-13.4c1.1-2.2,2.9-4.3,4.9-4.3c1,0,1.5,0.4,1.5,1.3c0,0.4-0.2,1-0.5,1.9l-4.1,8.8
			c-0.6,1.2-0.8,2.3-0.8,3.3c0,2.8,1.6,4.2,4.7,4.2c1.6,0,3.1-0.7,4.4-2c1.3-1.3,2.3-2.8,2.9-4.3c0.3-0.9,0.1-1.5-0.8-1.8
			c-0.8-0.3-1.5-0.1-1.9,0.7c-1.5,3-3,4.4-4.6,4.4c-1.1,0-1.6-0.4-1.6-1.3c0-0.6,0.2-1.2,0.6-2L854.7,72.3z"/>
		<path class="st0" d="M861.7,77.5c0.7,0.2,1.3,0.2,1.6,0.2c3.6,0,6.2-2.2,7.9-6.7c0.3-0.8,0.5-1.6,0.5-2.4c0-2.4-1.6-3.8-4.3-3.8
			s-5.1,2-7,6.1l-3,6.4c-0.8,1.7-1.2,3.3-1.2,4.4c0,3.5,2.7,5.4,6.6,5.4c2,0,3.8-0.6,5.6-1.9c1.7-1.3,3-2.8,3.8-4.4
			c1-1.9-1.6-3.2-2.6-1.2c-1.2,2.2-3.8,4.6-6.7,4.6c-2.2-0.1-3.4-1-3.4-2.8c0-0.7,0.3-1.8,0.9-3.3C860.5,77.5,861,77.3,861.7,77.5z
			 M862.6,73.2l0.7-1.6c1.2-2.8,2.5-4,4-3.8c1.2,0.2,1.4,1.2,0.6,3c-1.1,2.6-2.5,3.9-4.3,3.9C862.6,74.7,862.2,74.2,862.6,73.2z"/>
		<path class="st0" d="M884.9,72.3c0.6-1.1,0.8-2.2,0.8-3.2c0-2.8-1.9-4.5-4.6-4.3c-1.1,0.1-2.2,0.7-2.7,1.3
			c-0.1-0.7-0.5-1.1-1.3-1.1c-0.6,0-1.1,0.3-1.5,1l-6.3,13.7c-1,2.2,1.7,3.2,2.6,1.2l4.4-9.4c0.8-1.8,2.6-3.8,4.7-3.8
			c1.1,0,1.6,0.4,1.6,1.3c0,0.4-0.2,1-0.5,1.9l-4.1,8.8c-0.6,1.2-0.8,2.3-0.8,3.3c0,2.8,1.6,4.2,4.7,4.2c1.6,0,3.1-0.7,4.4-2
			c1.3-1.3,2.3-2.8,2.9-4.3c0.3-0.9,0.1-1.5-0.8-1.8c-0.8-0.3-1.5-0.1-1.9,0.7c-1.5,3-3,4.4-4.6,4.4c-1.1,0-1.6-0.4-1.6-1.3
			c0-0.6,0.2-1.2,0.6-2L884.9,72.3z"/>
		<path class="st0" d="M886.6,79.9c-0.6,1.2-0.8,2.3-0.8,3.1c0,2.9,2,4.5,5.1,4.2c1.6-0.2,3.1-0.9,4.4-2.2c1.3-1.3,2.3-2.7,2.9-4.1
			c0.3-0.9,0.1-1.5-0.8-1.8c-0.8-0.3-1.5-0.1-1.9,0.7c-0.6,1.1-0.6,1.3-1.5,2.6c-0.9,1.3-1.9,1.9-3.1,1.9c-1.9,0-2.2-1.6-1.5-3.3
			l5.4-12c0.3-0.7,0.8-1,1.6-1h1.6l0.7-0.1c0.8-0.3,1.1-0.8,1.1-1.7c-0.1-0.7-0.5-1.1-1.3-1.1h-0.8c-0.7,0-1-0.3-0.7-1l1.6-3.3
			c1.2-2.4-1.8-3.2-2.8-1.2l-2.1,4.5c-0.3,0.7-0.8,1-1.6,1h-0.2c-0.3,0-0.6,0.1-0.8,0.2c-0.7,0.3-1.1,0.8-1.1,1.6
			c0.1,0.7,0.5,1.1,1.3,1.1c0.4,0,0.5,0.3,0.2,1L886.6,79.9z"/>
		<path class="st0" d="M897.8,84.3c-0.5,0-1-0.1-1.4-0.2c-0.6-0.2-1.1-0.5-1.3-0.9c-1.6-1.5-3.5,0.8-2.3,2.1
			c0.7,0.8,1.5,1.3,2.2,1.6c0.8,0.3,1.7,0.4,2.7,0.4c2.5,0,4.7-1,6.5-2.8c1.9-1.9,2.9-4,3-6.6c0.1-1.3-0.3-3.1-1-5.6
			c-0.8-2.4-1.1-4.2-1-5.2c0.1-0.6,0.3-1.3,0.6-2.2l0.3-0.6c1-2.4-2-3.3-2.9-1.1c-4.3,9.6-6.8,15.1-7.5,16.5c-1,2,1.7,3.2,2.7,1.2
			c0.3-0.6,0.8-1.8,1.6-3.7c0.8-1.9,1.5-3.3,2-4.2c0.7-1.3,0.5-1.4,1.2,0c0.8,1.8,1.1,3.4,1,4.8C903.8,81.5,901.1,84.3,897.8,84.3z"
			/>
	</g>
</g>
</svg>
