<svg id="Layer_1" data-name="Layer 1" xmlns="http://www.w3.org/2000/svg" viewBox="0 0 25 25"><defs><style>.cls-1{fill:#010101;}</style></defs><title>Artboard 1</title><path class="cls-1" d="M4.62,4.65a6.38,6.38,0,1,1,9,9A6.37,6.37,0,0,1,2.76,9.16,6.38,6.38,0,0,1,4.62,4.65ZM9.13,3.41A5.75,5.75,0,1,0,13.2,5.09,5.72,5.72,0,0,0,9.13,3.41Z"/><path class="cls-1" d="M14.12,16.35l2.2-2.2h0a.31.31,0,0,1,.44,0h0l5.8,5.8h0s0,0,0,0a.44.44,0,0,1,.11.29.45.45,0,0,1-.13.32l-.13-.13h0l.13.13h0l-2,2a.46.46,0,0,1-.64,0l.22-.22-.22.22h0l-5.79-5.79h0a.31.31,0,0,1,0-.44Zm2.42-1.54-1.76,1.76L20.24,22,22,20.27Z"/><path class="cls-1" d="M13.72,13.46a.31.31,0,1,0-.44.44l1.86,1.86a.31.31,0,0,0,.44,0,.3.3,0,0,0,0-.44Z"/><path class="cls-1" d="M12.35,6.56a.31.31,0,1,0-.62,0v5.21a.31.31,0,1,0,.62,0Z"/><path class="cls-1" d="M10.41,7.9a.31.31,0,1,0-.62,0v3.87a.31.31,0,1,0,.62,0Z"/><path class="cls-1" d="M8.48,9a.32.32,0,0,0-.63,0v2.82a.32.32,0,0,0,.63,0Z"/><path class="cls-1" d="M6.54,7.7c0-.33-.14-.6-.31-.6s-.31.27-.31.6v3.78c0,.33.14.6.31.6s.31-.27.31-.6Z"/></svg>