<svg id="Layer_1" data-name="Layer 1" xmlns="http://www.w3.org/2000/svg" xmlns:xlink="http://www.w3.org/1999/xlink" viewBox="0 0 375 375"><defs><style>.cls-1{fill:#ed1c24;stroke:#ed1c24;}.cls-1,.cls-2{stroke-miterlimit:10;stroke-width:4px;}.cls-2{fill:none;stroke:#00aeef;}.cls-3{fill:#fff;}</style></defs><title>Artboard 1</title><line class="cls-1" x1="69.95" y1="252.33" x2="121.6" y2="303.99"/><line class="cls-1" x1="121.6" y1="252.33" x2="69.95" y2="303.99"/><circle class="cls-2" cx="280.78" cy="278.16" r="31.13"/><image width="500" height="500" transform="translate(202.08 50.18) scale(0.34)" xlink:href="../Onboard1-removebg-preview.png"/><path class="cls-3" d="M50.06,153.31a.5.5,0,0,0,0-1,.5.5,0,0,0,0,1Z"/><path class="cls-3" d="M50.31,153.31a.5.5,0,0,0,0-1,.5.5,0,0,0,0,1Z"/><path class="cls-3" d="M50.14,150.63c1.28,0,3-1.93,1-1.93-1.28,0-3,1.93-1,1.93Z"/><path class="cls-3" d="M50.64,149.79c.9,0,3.14-1.33,1.22-1.33-.9,0-3.14,1.33-1.22,1.33Z"/><path class="cls-3" d="M51,151.56c1.69,0,2.19-2.21.23-2.21-1.69,0-2.19,2.21-.23,2.21Z"/><path class="cls-3" d="M49.87,151.71C51,151.71,52.92,150,51,150c-1.16,0-3,1.76-1.09,1.76Z"/><path class="cls-3" d="M50,152c1.64,0,2.24-2.09.27-2.09C48.58,149.87,48,152,50,152Z"/><path class="cls-3" d="M48.51,152.51v0c0,.41,2.9,0,2.9-.77v0c0-.41-2.9,0-2.9.77Z"/><path class="cls-3" d="M49.28,153.45c.93,0,3.12-1.4,1.19-1.4-.93,0-3.12,1.4-1.19,1.4Z"/><path class="cls-3" d="M49.86,154.43c1.13,0,3.06-1.7,1.11-1.7-1.13,0-3.06,1.7-1.11,1.7Z"/><path class="cls-3" d="M49.37,154.83l.08.09a1.88,1.88,0,0,0,1.93.07c.36-.16,1.24-.76.75-1.24l-.08-.08a1.86,1.86,0,0,0-1.93-.08c-.36.16-1.24.76-.75,1.24Z"/><path class="cls-3" d="M50.92,156.06c1.24,0,3-1.87,1.07-1.87-1.23,0-3,1.87-1.07,1.87Z"/><path class="cls-3" d="M51.46,156.34c1.23,0,3-1.85,1.08-1.85-1.23,0-3,1.85-1.08,1.85Z"/><path class="cls-3" d="M50.16,155.72c1,0,3.12-1.44,1.18-1.44-1,0-3.12,1.44-1.18,1.44Z"/><path class="cls-3" d="M49.56,155.07c.59,0,3.26-1.14,1.88-1.14-.59,0-3.26,1.14-1.88,1.14Z"/><path class="cls-3" d="M49.89,153.72c1.71,0,2.18-2.27.22-2.27-1.71,0-2.18,2.27-.22,2.27Z"/><path class="cls-3" d="M50.5,153.08c1.67,0,2.21-2.16.25-2.16-1.67,0-2.21,2.16-.25,2.16Z"/><path class="cls-3" d="M54,156.63a.5.5,0,0,0,0-1,.5.5,0,0,0,0,1Z"/><path class="cls-3" d="M53.63,156.33a.5.5,0,0,0,0-1,.5.5,0,0,0,0,1Z"/><path class="cls-3" d="M53.42,156.13a.5.5,0,0,0,0-1,.5.5,0,0,0,0,1Z"/><path class="cls-3" d="M53.78,155.46c-.32-1-.64-2.08-.94-3.13a.5.5,0,0,0-1,.27c.3,1,.61,2.09.94,3.13.19.61,1.16.35,1-.27Z"/><path class="cls-3" d="M52.17,148.45c-1.32,1.63-.62,3.53,0,5.31.21.6,1.18.34,1-.27-.47-1.33-1.3-3.06-.26-4.34.4-.49-.3-1.2-.71-.7Z"/><path class="cls-3" d="M52.27,154.38a1.59,1.59,0,0,0,.21.46c.38.51,1.25,0,.87-.51a.45.45,0,0,1-.12-.21.5.5,0,0,0-1,.26Z"/><path class="cls-3" d="M53.43,155.21c-1.11.14-2.31-.52-3.38-.77-1.38-.32-1.52-2.1-.88-3.12.34-.55-.52-1-.86-.51a3.26,3.26,0,0,0,.39,4c.58.57,1.3.54,2,.77a6.25,6.25,0,0,0,2.7.6c.63-.08.64-1.08,0-1Z"/><path class="cls-3" d="M50.13,152a.5.5,0,0,0,0-1,.5.5,0,0,0,0,1Z"/><path class="cls-3" d="M50,150.81l-.12-.12a.5.5,0,0,0-.71.71l.12.12a.5.5,0,0,0,.71-.71Z"/><path class="cls-3" d="M49.77,150.52l0,0a.5.5,0,0,0-.71.71l0,0a.5.5,0,0,0,.71-.71Z"/><path class="cls-3" d="M49.25,151.21a.5.5,0,0,0,0-1,.5.5,0,0,0,0,1Z"/><path class="cls-3" d="M49.5,151.05a4.33,4.33,0,0,1,1.08-.72c.58-.28.07-1.14-.51-.86a5,5,0,0,0-1.27.87c-.48.43.23,1.14.7.71Z"/><image width="375" height="375" transform="translate(14.36 54) scale(0.45)" xlink:href="../온보드3755.png"/></svg>