<svg id="Layer_1" data-name="Layer 1" xmlns="http://www.w3.org/2000/svg" viewBox="0 0 25 25"><defs><style>.cls-1{fill:#4d4749;}</style></defs><title>Artboard 1</title><path class="cls-1" d="M16.73,6.69C16.73,4.1,15,2,12.92,2S9.11,4.08,9.11,6.69s1.71,4.71,3.81,4.71S16.73,9.29,16.73,6.69Zm-6.89,0c0-2.25,1.37-4.09,3.08-4.09S16,4.43,16,6.69s-1.37,4.08-3.08,4.08S9.84,9,9.84,6.69Z"/><path class="cls-1" d="M19.45,6.37H18.06C17.92,3.16,15.66.6,12.92.6s-5,2.56-5.15,5.77H6.4A.34.34,0,0,0,6,6.69v5.46H4.3a.34.34,0,0,0-.37.32v4.08a.34.34,0,0,0,.37.32H5.55v7.5a.34.34,0,0,0,.37.32H7.54a.35.35,0,0,0,.38-.32v-7.5h10v7.5a.34.34,0,0,0,.37.32h1.62a.34.34,0,0,0,.37-.32v-7.5H21.5a.35.35,0,0,0,.38-.32V12.47a.35.35,0,0,0-.38-.32H19.81V6.69C19.83,6.52,19.65,6.37,19.45,6.37ZM19.08,7v5.15H15.2A6.19,6.19,0,0,0,18.06,7ZM8.5,6.6c0-3,2-5.37,4.42-5.37s4.41,2.46,4.41,5.47-2,5.47-4.41,5.47S8.54,9.77,8.5,6.81a.15.15,0,0,0,0-.09A1,1,0,0,0,8.5,6.6ZM6.78,7h1a6.24,6.24,0,0,0,2.87,5.15H6.78Zm.41,17.05H6.31V16.87h.88Zm12.33,0h-.87V16.87h.87Zm1.62-11.26v3.45H4.69V12.79Z"/><ellipse class="cls-1" cx="12.92" cy="14.58" rx="0.55" ry="0.47"/><path class="cls-1" d="M12.19,8.73l3.13-3.54a.3.3,0,0,0-.08-.46.44.44,0,0,0-.54.07L11.58,8.34a.3.3,0,0,0,.07.46.57.57,0,0,0,.25.06A.31.31,0,0,0,12.19,8.73Z"/><path class="cls-1" d="M12.85,9.48,15,7.07a.29.29,0,0,0-.07-.44.41.41,0,0,0-.52.06L12.26,9.1a.29.29,0,0,0,.08.44.49.49,0,0,0,.23.06A.42.42,0,0,0,12.85,9.48Z"/><path class="cls-1" d="M11.42,7.83l2.13-2.41A.27.27,0,0,0,13.48,5a.41.41,0,0,0-.52.06L10.83,7.46a.28.28,0,0,0,.07.44.49.49,0,0,0,.23.06A.41.41,0,0,0,11.42,7.83Z"/></svg>